<svg width="20" height="25" viewBox="0 0 20 25" fill="none" xmlns="http://www.w3.org/2000/svg">
<path d="M12.3574 1.25439V6.18167C12.3574 6.50837 12.4872 6.82168 12.7182 7.05269C12.9492 7.2837 13.2625 7.41349 13.5892 7.41349H18.5165" stroke="white" stroke-width="2" stroke-linecap="round" stroke-linejoin="round"/>
<path d="M16.0533 23.4271H3.73512C3.08172 23.4271 2.45509 23.1676 1.99307 22.7055C1.53105 22.2435 1.27148 21.6169 1.27148 20.9635V3.71803C1.27148 3.06463 1.53105 2.438 1.99307 1.97598C2.45509 1.51396 3.08172 1.25439 3.73512 1.25439H12.3578L18.5169 7.41349V20.9635C18.5169 21.6169 18.2574 22.2435 17.7954 22.7055C17.3333 23.1676 16.7067 23.4271 16.0533 23.4271Z" stroke="white" stroke-width="2" stroke-linecap="round" stroke-linejoin="round"/>
<path d="M8.66225 12.9566C8.66225 12.4666 8.46758 11.9966 8.12106 11.6501C7.77455 11.3036 7.30457 11.1089 6.81452 11.1089C6.32448 11.1089 5.8545 11.3036 5.50798 11.6501C5.16147 11.9966 4.9668 12.4666 4.9668 12.9566V16.6521C4.9668 17.1421 5.16147 17.6121 5.50798 17.9586C5.8545 18.3051 6.32448 18.4998 6.81452 18.4998C7.30457 18.4998 7.77455 18.3051 8.12106 17.9586C8.46758 17.6121 8.66225 17.1421 8.66225 16.6521M11.1259 11.1089L12.9736 18.4998L14.8213 11.1089" stroke="white" stroke-width="2" stroke-linecap="round" stroke-linejoin="round"/>
</svg>
