<svg width="30" height="27" viewBox="0 0 30 27" fill="none" xmlns="http://www.w3.org/2000/svg">
<path d="M4.22656 19.3728C5.30751 21.246 6.86278 22.8015 8.73588 23.8827C10.609 24.964 12.7338 25.5327 14.8966 25.5319C17.0593 25.5327 19.1842 24.964 21.0573 23.8827C22.9304 22.8015 24.4856 21.246 25.5666 19.3728M4.22656 7.0546C5.30751 5.18135 6.86278 3.62585 8.73588 2.54463C10.609 1.46342 12.7338 0.894631 14.8966 0.895509C17.0593 0.894631 19.1842 1.46342 21.0573 2.54463C22.9304 3.62585 24.4856 5.18135 25.5666 7.0546" stroke="white" stroke-width="1.5" stroke-linecap="round" stroke-linejoin="round"/>
<path d="M16.1275 25.4702C16.1275 25.4702 17.8619 23.1877 18.9545 19.3727M16.1275 0.957031C16.1275 0.957031 17.8619 3.23836 18.9545 7.05453M13.6639 25.4702C13.6639 25.4702 11.9295 23.1889 10.8369 19.3727M13.6639 0.957031C13.6639 0.957031 11.9295 3.23836 10.8369 7.05453M11.2002 10.75L13.048 16.9091L14.8957 10.75L16.7434 16.9091L18.5912 10.75M1.3457 10.75L3.19343 16.9091L5.04116 10.75L6.88889 16.9091L8.73661 10.75M21.0548 10.75L22.9025 16.9091L24.7502 10.75L26.598 16.9091L28.4457 10.75" stroke="white" stroke-width="1.5" stroke-linecap="round" stroke-linejoin="round"/>
</svg>
