<svg width="31" height="23" viewBox="0 0 31 23" fill="none" xmlns="http://www.w3.org/2000/svg">
<path d="M9.97475 11.2132C10.9548 11.2132 11.8948 10.8238 12.5878 10.1308C13.2809 9.43777 13.6702 8.49782 13.6702 7.51772C13.6702 6.53762 13.2809 5.59767 12.5878 4.90464C11.8948 4.21161 10.9548 3.82227 9.97475 3.82227C8.99466 3.82227 8.0547 4.21161 7.36167 4.90464C6.66864 5.59767 6.2793 6.53762 6.2793 7.51772C6.2793 8.49782 6.66864 9.43777 7.36167 10.1308C8.0547 10.8238 8.99466 11.2132 9.97475 11.2132ZM17.3657 6.59386C17.3657 6.34883 17.463 6.11384 17.6363 5.94059C17.8095 5.76733 18.0445 5.66999 18.2895 5.66999H25.6804C25.9255 5.66999 26.1604 5.76733 26.3337 5.94059C26.507 6.11384 26.6043 6.34883 26.6043 6.59386C26.6043 6.83888 26.507 7.07387 26.3337 7.24713C26.1604 7.42038 25.9255 7.51772 25.6804 7.51772H18.2895C18.0445 7.51772 17.8095 7.42038 17.6363 7.24713C17.463 7.07387 17.3657 6.83888 17.3657 6.59386ZM17.3657 11.2132C17.3657 10.9682 17.463 10.7332 17.6363 10.5599C17.8095 10.3866 18.0445 10.2893 18.2895 10.2893H25.6804C25.9255 10.2893 26.1604 10.3866 26.3337 10.5599C26.507 10.7332 26.6043 10.9682 26.6043 11.2132C26.6043 11.4582 26.507 11.6932 26.3337 11.8664C26.1604 12.0397 25.9255 12.137 25.6804 12.137H18.2895C18.0445 12.137 17.8095 12.0397 17.6363 11.8664C17.463 11.6932 17.3657 11.4582 17.3657 11.2132ZM19.2134 15.8325C19.2134 15.5875 19.3107 15.3525 19.484 15.1792C19.6572 15.006 19.8922 14.9086 20.1373 14.9086H25.6804C25.9255 14.9086 26.1604 15.006 26.3337 15.1792C26.507 15.3525 26.6043 15.5875 26.6043 15.8325C26.6043 16.0775 26.507 16.3125 26.3337 16.4858C26.1604 16.659 25.9255 16.7564 25.6804 16.7564H20.1373C19.8922 16.7564 19.6572 16.659 19.484 16.4858C19.3107 16.3125 19.2134 16.0775 19.2134 15.8325Z" fill="white"/>
<path d="M4.43178 0.126953C3.45169 0.126953 2.51173 0.516294 1.8187 1.20933C1.12567 1.90236 0.736328 2.84231 0.736328 3.82241L0.736328 18.6042C0.736328 19.5843 1.12567 20.5243 1.8187 21.2173C2.51173 21.9103 3.45169 22.2997 4.43178 22.2997H26.6045C27.5846 22.2997 28.5246 21.9103 29.2176 21.2173C29.9106 20.5243 30.3 19.5843 30.3 18.6042V3.82241C30.3 2.84231 29.9106 1.90236 29.2176 1.20933C28.5246 0.516294 27.5846 0.126953 26.6045 0.126953H4.43178ZM2.58406 3.82241C2.58406 3.33236 2.77873 2.86238 3.12524 2.51587C3.47176 2.16935 3.94174 1.97468 4.43178 1.97468H26.6045C27.0946 1.97468 27.5645 2.16935 27.9111 2.51587C28.2576 2.86238 28.4522 3.33236 28.4522 3.82241V18.6042C28.4522 19.0943 28.2576 19.5642 27.9111 19.9108C27.5645 20.2573 27.0946 20.452 26.6045 20.452H17.292C17.34 20.1508 17.3659 19.8422 17.3659 19.5281C17.3659 15.9564 14.0584 13.061 9.97496 13.061C6.12061 13.061 2.9536 15.6442 2.61362 18.9387C2.5937 18.8283 2.5838 18.7164 2.58406 18.6042V3.82241Z" fill="white"/>
</svg>
