<svg width="29" height="28" viewBox="0 0 29 28" fill="none" xmlns="http://www.w3.org/2000/svg">
<path fill-rule="evenodd" clip-rule="evenodd" d="M19.4463 9.87747C19.4463 11.1843 18.9272 12.4375 18.0032 13.3616C17.0791 14.2856 15.8259 14.8047 14.5191 14.8047C13.2123 14.8047 11.959 14.2856 11.035 13.3616C10.1109 12.4375 9.5918 11.1843 9.5918 9.87747C9.5918 8.57067 10.1109 7.3174 11.035 6.39336C11.959 5.46932 13.2123 4.9502 14.5191 4.9502C15.8259 4.9502 17.0791 5.46932 18.0032 6.39336C18.9272 7.3174 19.4463 8.57067 19.4463 9.87747ZM16.9827 9.87747C16.9827 10.5309 16.7231 11.1575 16.2611 11.6195C15.7991 12.0815 15.1725 12.3411 14.5191 12.3411C13.8657 12.3411 13.239 12.0815 12.777 11.6195C12.315 11.1575 12.0554 10.5309 12.0554 9.87747C12.0554 9.22407 12.315 8.59744 12.777 8.13541C13.239 7.67339 13.8657 7.41383 14.5191 7.41383C15.1725 7.41383 15.7991 7.67339 16.2611 8.13541C16.7231 8.59744 16.9827 9.22407 16.9827 9.87747Z" fill="white"/>
<path fill-rule="evenodd" clip-rule="evenodd" d="M14.5188 0.0229492C7.03545 0.0229492 0.96875 6.08965 0.96875 13.5729C0.96875 21.0562 7.03545 27.1229 14.5188 27.1229C22.002 27.1229 28.0688 21.0562 28.0688 13.5729C28.0688 6.08965 22.002 0.0229492 14.5188 0.0229492ZM3.43239 13.5729C3.43239 16.1474 4.31067 18.5175 5.7827 20.3997C6.81648 19.0421 8.15013 17.9419 9.67947 17.185C11.2088 16.4282 12.8924 16.0351 14.5988 16.0366C16.2831 16.035 17.9456 16.4179 19.4595 17.156C20.9734 17.8942 22.2989 18.9682 23.3349 20.2962C24.4022 18.8964 25.1208 17.2625 25.4313 15.5298C25.7418 13.7971 25.6352 12.0154 25.1204 10.332C24.6056 8.64867 23.6973 7.11212 22.4707 5.84949C21.2442 4.58687 19.7346 3.63447 18.0669 3.07109C16.3991 2.50772 14.6212 2.34957 12.8803 2.60973C11.1393 2.8699 9.48528 3.54089 8.05512 4.56719C6.62495 5.5935 5.45973 6.94561 4.65586 8.51165C3.852 10.0777 3.43261 11.8126 3.43239 13.5729ZM14.5188 24.6593C11.9738 24.6631 9.50558 23.7876 7.53188 22.1809C8.32631 21.0436 9.38372 20.115 10.6141 19.4742C11.8445 18.8334 13.2115 18.4992 14.5988 18.5002C15.9688 18.4991 17.3193 18.8249 18.5381 19.4505C19.7569 20.0761 20.8089 20.9834 21.6066 22.0971C19.6176 23.756 17.1088 24.6629 14.5188 24.6593Z" fill="white"/>
</svg>
